<?xml version="1.0" encoding="UTF-8"?>
<svg id="Layer_2" data-name="Layer 2" xmlns="http://www.w3.org/2000/svg" viewBox="0 0 664 300.3">
  <defs>
    <style>
      .cls-1 {
        fill: #579850;
      }

      .cls-2 {
        fill: #669657;
      }

      .cls-3 {
        fill: #ebba31;
      }

      .cls-4 {
        fill: #d0594a;
      }

      .cls-5 {
        fill: #2d4f85;
      }

      .cls-6 {
        fill: #ac3325;
      }

      .cls-7 {
        fill: #304884;
      }

      .cls-8 {
        fill: #c23f2c;
      }

      .cls-9 {
        fill: #ac2358;
      }

      .cls-10 {
        fill: #abc048;
      }
    </style>
  </defs>
  <g id="Camada_1" data-name="Camada 1">
    <g>
      <g>
        <g>
          <path class="cls-1" d="M260,163.6v-88.5l-18-10.4v47.2c1.8.9,3.3,2.3,4.4,4.1,2.9,5,1.2,11.3-3.8,14.2s-11.3,1.2-14.2-3.8c-2.9-5-1.2-11.3,3.8-14.2l.6-.3v-52.5l-18-10.4v140.7l45.2-26h0v-.1Z"/>
          <path class="cls-8" d="M0,136.6v88.5l18,10.4v-47.2c-1.8-.9-3.3-2.3-4.4-4.1-2.9-5-1.2-11.3,3.8-14.2s11.3-1.2,14.2,3.8,1.2,11.3-3.8,14.2c-.2.1-.4.2-.6.3v52.5l18,10.4V110.5L0,136.6h0Z"/>
          <path class="cls-7" d="M182.7,267.2l76.9-43.7.2-20.8-41,23.3c.1,2-.3,4-1.4,5.8-2.9,4.9-9.3,6.6-14.2,3.7s-6.6-9.3-3.7-14.2,9.3-6.6,14.2-3.7c.2.1.4.2.5.4l45.6-25.9.2-20.8-122.3,69.5,45,26.5h0v-.1Z"/>
          <path class="cls-3" d="M76.5,30.8L.1,75.4v20.8l40.8-23.8c-.1-2,.3-4,1.3-5.9,2.8-5,9.2-6.7,14.2-3.9s6.7,9.2,3.9,14.2c-2.8,5-9.2,6.7-14.2,3.9l-.6-.3L.1,106.8v20.8L121.7,56.7l-45.3-26h0l.1.1Z"/>
          <path class="cls-9" d="M53.1,255.8l76.5,44.5,18.1-10.3-40.8-23.7c-1.6,1.1-3.6,1.7-5.8,1.7-5.7,0-10.4-4.7-10.3-10.4s4.7-10.4,10.4-10.3,10.4,4.7,10.3,10.4v.6l45.4,26.4,18.1-10.3-121.6-70.8-.2,52.2h-.1Z"/>
          <path class="cls-10" d="M206.8,44.5L130.4,0l-18.1,10.3,40.8,23.7c1.6-1.1,3.6-1.7,5.8-1.7,5.7,0,10.4,4.7,10.3,10.4s-4.7,10.4-10.4,10.3-10.4-4.7-10.3-10.4v-.6l-45.4-26.4-18.1,10.3,121.6,70.8.2-52.2h0Z"/>
        </g>
        <g>
          <g>
            <g>
              <path class="cls-4" d="M129.9,149.3l19.6,11.7,19.6,11.7v-45.2h0l-19.6-11.7-19.6-11.7v45.2h0Z"/>
              <path class="cls-4" d="M131.6,150.9l-21.3,10.1-19.6,11.7v-45.2h0l19.6-11.7,19.6-11.7,1.7,46.8h0Z"/>
            </g>
            <path class="cls-8" d="M129.9,151l-19.6-11.7-19.6-11.7v45.2h0l19.6,11.7,19.6,11.7v-45.2h0Z"/>
            <path class="cls-6" d="M129.8,150.7l19.7-11.4,19.7-11.4-.7,45.2h0l-19.7,11.4-19.7,11.4.7-45.2Z"/>
          </g>
          <g>
            <g>
              <path class="cls-8" d="M129.9,149.3l19.6,11.7,19.6,11.7v-45.2h0l-19.6-11.7-19.6-11.7v45.2h0Z"/>
              <path class="cls-8" d="M131.6,150.9l-21.3,10.1-19.6,11.7v-45.2h0l19.6-11.7,19.6-11.7,1.7,46.8h0Z"/>
            </g>
            <path class="cls-8" d="M129.9,151l-19.6-11.7-19.6-11.7v45.2h0l19.6,11.7,19.6,11.7v-45.2h0Z"/>
            <path class="cls-8" d="M129.8,150.7l19.7-11.4,19.7-11.4-.7,45.2h0l-19.7,11.4-19.7,11.4.7-45.2Z"/>
          </g>
        </g>
      </g>
      <g>
        <g>
          <g>
            <path class="cls-2" d="M301.7,230.8v22.2h-2.9v-22.2h2.9Z"/>
            <path class="cls-2" d="M340.1,253h-2.9l-11.7-17.7v17.7h-2.9v-22.2h2.9l11.7,17.6v-17.6h2.9v22.2Z"/>
            <path class="cls-2" d="M365.4,251.8c-1.7-1-3-2.3-4-4s-1.5-3.7-1.5-5.9.5-4.1,1.5-5.9,2.3-3.1,4-4,3.6-1.5,5.6-1.5,4,.5,5.7,1.5,3,2.3,4,4,1.5,3.7,1.5,5.9-.5,4.1-1.5,5.9c-1,1.7-2.3,3.1-4,4s-3.6,1.5-5.7,1.5-3.9-.5-5.6-1.5h0ZM375.2,249.6c1.2-.7,2.2-1.8,2.9-3.1s1.1-2.9,1.1-4.6-.4-3.3-1.1-4.7c-.7-1.3-1.7-2.4-2.9-3.1s-2.6-1.1-4.2-1.1-3,.4-4.2,1.1-2.2,1.8-2.9,3.1c-.7,1.3-1.1,2.9-1.1,4.7s.4,3.3,1.1,4.6,1.7,2.4,2.9,3.1,2.6,1.1,4.2,1.1,3-.4,4.2-1.1h0Z"/>
            <path class="cls-2" d="M420.3,230.8l-8.4,22.2h-3.3l-8.4-22.2h3.1l7,19.1,7-19.1h3.1-.1Z"/>
            <path class="cls-2" d="M452.5,248h-9.7l-1.8,4.9h-3.1l8-22.1h3.3l8,22.1h-3.1l-1.8-4.9h.2ZM451.7,245.7l-4-11.2-4,11.2h8Z"/>
            <path class="cls-2" d="M490.5,230.8v2.4h-6.1v19.9h-2.9v-19.9h-6.1v-2.4h15.1Z"/>
            <path class="cls-2" d="M512.9,233.1v7.4h8.1v2.4h-8.1v7.6h9v2.4h-12v-22.2h12v2.4h-9Z"/>
            <path class="cls-2" d="M542.6,236c1-1.7,2.3-3.1,4-4.1s3.6-1.5,5.6-1.5,4.5.6,6.3,1.8c1.8,1.2,3.1,2.8,4,5h-3.5c-.6-1.3-1.5-2.4-2.7-3.1s-2.5-1.1-4.2-1.1-2.9.4-4.2,1.1-2.2,1.8-2.9,3.1-1,2.9-1,4.7.3,3.3,1,4.6c.7,1.3,1.7,2.4,2.9,3.1s2.6,1.1,4.2,1.1,3-.4,4.2-1.1,2-1.7,2.7-3.1h3.5c-.8,2.1-2.2,3.8-4,4.9-1.8,1.2-3.9,1.7-6.3,1.7s-3.9-.5-5.6-1.5c-1.7-1-3-2.3-4-4s-1.5-3.7-1.5-5.8.5-4.1,1.5-5.9v.1Z"/>
            <path class="cls-2" d="M594.9,240.1v2.5h-12.7v-2.5h12.7Z"/>
            <path class="cls-2" d="M627.5,230.8v16.4c0,1.8-.6,3.3-1.7,4.4s-2.6,1.6-4.5,1.6-3.4-.6-4.5-1.7-1.7-2.6-1.7-4.6h2.9c0,1.1.3,2,.8,2.6.5.7,1.3,1,2.4,1s1.9-.3,2.4-1c.5-.6.8-1.5.8-2.5v-16.4h2.9l.2.2Z"/>
            <path class="cls-2" d="M662.1,241.9c-1.3,1.2-3.2,1.8-5.8,1.8h-4.3v9.3h-2.9v-22.2h7.2c2.5,0,4.4.6,5.7,1.8,1.3,1.2,2,2.8,2,4.7s-.6,3.4-1.9,4.6h0ZM659.8,240.3c.8-.7,1.2-1.7,1.2-3,0-2.7-1.6-4.1-4.7-4.1h-4.3v8.2h4.3c1.6,0,2.8-.4,3.6-1h0l-.1-.1Z"/>
          </g>
          <g>
            <path class="cls-5" d="M301.7,230.8v22.2h-2.9v-22.2h2.9Z"/>
            <path class="cls-5" d="M340.1,253h-2.9l-11.7-17.7v17.7h-2.9v-22.2h2.9l11.7,17.6v-17.6h2.9v22.2Z"/>
            <path class="cls-5" d="M365.4,251.8c-1.7-1-3-2.3-4-4s-1.5-3.7-1.5-5.9.5-4.1,1.5-5.9,2.3-3.1,4-4,3.6-1.5,5.6-1.5,4,.5,5.7,1.5,3,2.3,4,4,1.5,3.7,1.5,5.9-.5,4.1-1.5,5.9c-1,1.7-2.3,3.1-4,4s-3.6,1.5-5.7,1.5-3.9-.5-5.6-1.5h0ZM375.2,249.6c1.2-.7,2.2-1.8,2.9-3.1s1.1-2.9,1.1-4.6-.4-3.3-1.1-4.7c-.7-1.3-1.7-2.4-2.9-3.1s-2.6-1.1-4.2-1.1-3,.4-4.2,1.1-2.2,1.8-2.9,3.1c-.7,1.3-1.1,2.9-1.1,4.7s.4,3.3,1.1,4.6,1.7,2.4,2.9,3.1,2.6,1.1,4.2,1.1,3-.4,4.2-1.1h0Z"/>
            <path class="cls-5" d="M420.3,230.8l-8.4,22.2h-3.3l-8.4-22.2h3.1l7,19.1,7-19.1h3.1-.1Z"/>
            <path class="cls-5" d="M452.5,248h-9.7l-1.8,4.9h-3.1l8-22.1h3.3l8,22.1h-3.1l-1.8-4.9h.2ZM451.7,245.7l-4-11.2-4,11.2h8Z"/>
            <path class="cls-5" d="M490.5,230.8v2.4h-6.1v19.9h-2.9v-19.9h-6.1v-2.4h15.1Z"/>
            <path class="cls-5" d="M512.9,233.1v7.4h8.1v2.4h-8.1v7.6h9v2.4h-12v-22.2h12v2.4h-9Z"/>
            <path class="cls-5" d="M542.6,236c1-1.7,2.3-3.1,4-4.1s3.6-1.5,5.6-1.5,4.5.6,6.3,1.8c1.8,1.2,3.1,2.8,4,5h-3.5c-.6-1.3-1.5-2.4-2.7-3.1s-2.5-1.1-4.2-1.1-2.9.4-4.2,1.1-2.2,1.8-2.9,3.1-1,2.9-1,4.7.3,3.3,1,4.6c.7,1.3,1.7,2.4,2.9,3.1s2.6,1.1,4.2,1.1,3-.4,4.2-1.1,2-1.7,2.7-3.1h3.5c-.8,2.1-2.2,3.8-4,4.9-1.8,1.2-3.9,1.7-6.3,1.7s-3.9-.5-5.6-1.5c-1.7-1-3-2.3-4-4s-1.5-3.7-1.5-5.8.5-4.1,1.5-5.9v.1Z"/>
            <path class="cls-5" d="M594.9,240.1v2.5h-12.7v-2.5h12.7Z"/>
            <path class="cls-5" d="M627.5,230.8v16.4c0,1.8-.6,3.3-1.7,4.4s-2.6,1.6-4.5,1.6-3.4-.6-4.5-1.7-1.7-2.6-1.7-4.6h2.9c0,1.1.3,2,.8,2.6.5.7,1.3,1,2.4,1s1.9-.3,2.4-1c.5-.6.8-1.5.8-2.5v-16.4h2.9l.2.2Z"/>
            <path class="cls-5" d="M662.1,241.9c-1.3,1.2-3.2,1.8-5.8,1.8h-4.3v9.3h-2.9v-22.2h7.2c2.5,0,4.4.6,5.7,1.8,1.3,1.2,2,2.8,2,4.7s-.6,3.4-1.9,4.6h0ZM659.8,240.3c.8-.7,1.2-1.7,1.2-3,0-2.7-1.6-4.1-4.7-4.1h-4.3v8.2h4.3c1.6,0,2.8-.4,3.6-1h0l-.1-.1Z"/>
          </g>
        </g>
        <g>
          <path class="cls-5" d="M297,47.1h16.5v28.7h29.4v-28.7h16.5v73.3h-16.5v-29.1h-29.4v29.1h-16.5V47.1h0Z"/>
          <path class="cls-5" d="M372.1,92v-44.8h16.5v44.6c0,8.1,5.9,14.1,14.1,14.1s14.1-6.1,14.1-14.1v-44.6h16.5v44.8c0,17-13.3,29.7-30.6,29.7s-30.6-12.8-30.6-29.7h0Z"/>
          <path class="cls-5" d="M446,47.1h36.3c11,0,19.5,7.9,19.5,18.8s-3.3,12.6-8,15.5c6.9,2.7,11.7,10.4,11.7,19.1s-8.8,19.9-20.7,19.9h-38.9V47.1h.1ZM461.9,62v13.8h16.3c3.8,0,6.8-3,6.8-6.9s-2.9-6.9-6.8-6.9h-16.3ZM461.9,89.7v15.8h18.9c4.5,0,7.9-3.4,7.9-7.9s-3.4-8-7.9-8h-18.9v.1Z"/>
          <path class="cls-5" d="M538,47.1h28.9c21.4,0,37.4,15.7,37.4,36.7s-16,36.7-37.4,36.7h-28.9V47.1ZM554.4,62.6v42.3h12c12,0,20.9-9.1,20.9-21.1s-8.9-21.1-20.9-21.1h-12v-.1Z"/>
          <path class="cls-5" d="M614.8,47.1h48.7v15.5h-32.2v13.2h28.7v15.5h-28.7v13.6h32.7v15.5h-49.2V47.1Z"/>
          <path class="cls-5" d="M297,144.8h11v49.1h-11v-49.1h0Z"/>
          <path class="cls-5" d="M317.4,144.8h11.1l20.4,30v-30h11v49.1h-11.2l-20.4-30v30h-11v-49.1h.1Z"/>
          <path class="cls-5" d="M366.9,169.4c0-14.4,11.2-25.4,26-25.4s26,11,26,25.4-11.2,25.4-26,25.4-26-11-26-25.4ZM407.5,169.4c0-8.5-6.3-14.8-14.7-14.8s-14.7,6.3-14.7,14.8,6.3,14.8,14.7,14.8,14.7-6.3,14.7-14.8Z"/>
          <path class="cls-5" d="M418.4,144.8h12.3l12.7,34.4,12.7-34.4h12.1l-19.2,49.1h-11.4l-19.2-49.1h0Z"/>
          <path class="cls-5" d="M481,144.8h13l18.5,49.1h-12.1l-3-8.6h-20l-3.1,8.6h-11.8l18.4-49.1h.1ZM493.8,175.1l-6.4-18.1-6.4,18.1h12.8Z"/>
          <path class="cls-5" d="M529.6,204.3h6.3c.4,1.1,1.4,1.9,2.6,1.9s2.6-1.1,2.6-2.5-1.3-2.5-2.6-2.5-1.7.5-2.1.9l-5.8-2.6,4-5c-13-1.6-22.4-12-22.4-25.2s11.2-25.4,26-25.4,22.8,8.1,25,19.6h-11.7c-1.8-5.3-7-9-13.2-9s-14.7,6.3-14.7,14.8,6.3,14.8,14.7,14.8,11.4-3.6,13.2-9h11.7c-2,10.3-10.4,17.9-21.3,19.4l-1.3,1.4c3.8.4,6.7,3.6,6.7,7.7s-3.8,8.1-8.8,8.1-8.5-3.2-8.8-7.5l-.1.1Z"/>
          <path class="cls-5" d="M580.8,144.8h13l18.5,49.1h-12.1l-3-8.6h-20l-3.1,8.6h-11.8l18.4-49.1h.1ZM584,138.1c-1.4,0-2.4,1.1-2.4,2.5h-7.3c0-6,2.8-10.7,8.5-10.7s5.6,2.6,7.8,2.6,2.5-1.1,2.5-2.5h7.3c0,6.1-2.8,10.7-8.4,10.7s-5.7-2.6-7.9-2.6h-.1ZM593.7,175.1l-6.4-18.1-6.4,18.1h12.8Z"/>
          <path class="cls-5" d="M612,169.4c0-14.4,11.2-25.4,26-25.4s26,11,26,25.4-11.2,25.4-26,25.4-26-11-26-25.4ZM652.6,169.4c0-8.5-6.3-14.8-14.7-14.8s-14.7,6.3-14.7,14.8,6.3,14.8,14.7,14.8,14.7-6.3,14.7-14.8Z"/>
        </g>
      </g>
    </g>
  </g>
</svg>